<?xml version="1.0" encoding="utf-8"?>
<!-- Generator: Adobe Illustrator 26.3.1, SVG Export Plug-In . SVG Version: 6.00 Build 0)  -->
<svg version="1.1" id="Layer_1" xmlns="http://www.w3.org/2000/svg" xmlns:xlink="http://www.w3.org/1999/xlink" x="0px" y="0px"
	 viewBox="0 0 1759 382.7" style="enable-background:new 0 0 1759 382.7;" xml:space="preserve">
<g>
	<path d="M141.7,0v53.1h-41.1v329.6H41.6V53.1H0V0H141.7z"/>
	<path d="M211.9,0v157.8h25.5V0H296v382.7h-58.6V212.4h-25.5v170.3h-60.1V0H211.9z"/>
	<path d="M430.2,0v53.1h-57.6v95.2h44.6v54.6h-44.6v126.2h58.1v53.6H313.5V0H430.2z"/>
	<path d="M652.1,104.2V304c0,53.6-26.5,78.6-71.1,78.6h-73.6V2.5c22.5-3,44.1-4.5,64.1-4.5C642.1-2,652.1,28,652.1,104.2z
		 M581,329.1c8,0,12-3.5,12-29.6V108.2c0-47.1-5.5-57.6-21.5-57.6c-1.5,0-3,0.5-4.5,1.5v277H581z"/>
	<path d="M679.7,0h120.7l22.5,382.7h-56.6l-6.5-116.2h-35.6l-6,116.2h-61.1L679.7,0z M726.2,213.4h31.6l-8.5-162.8h-15L726.2,213.4z
		"/>
	<path d="M892,0v382.7h-59.6V0H892z"/>
	<path d="M969.2,0v329.1h44.1v53.6H909.6V0H969.2z"/>
	<path d="M1068.3,112.2L1088.9,0h54.6l-49.1,223.9v158.8h-59.6V223.9L989.2,0h59.6L1068.3,112.2z"/>
	<path d="M1275.2,78.1v221.4c0,26,4,29.6,12,29.6c5,0,9-1.5,12-5V213.4h-11.5v-50.1h70.6v219.4h-45.6l-5.5-16c-9,10.5-19,16-31.1,16
		c-37.1,0-60.1-25-60.1-77.6V73.1c0-52.6,26.5-78.1,71.1-78.1c44.1,0,71.1,24.5,71.1,77.6v44.1h-59.1V78.1c0-26-4.5-30.6-12-30.6
		C1278.7,47.6,1275.2,52.1,1275.2,78.1z"/>
	<path d="M1518.6,87.7v22c0,32.1-3.5,54.6-27.5,67.6c21,12.5,28.5,37.1,28.5,81.1v124.2H1461V254.9c0-29.6-5-47.1-20-47.1h-7v174.8
		h-59.6V3c27.5-4,48.6-5,58.6-5C1501.1-2,1518.6,35.1,1518.6,87.7z M1433.9,52.1v104.2h2c14,0,21.5-10.5,21.5-49.1V90.7
		c0-26.5-6-40.1-18-40.1C1437,50.6,1435.4,51.1,1433.9,52.1z"/>
	<path d="M1595.7,0v382.7h-59.6V0H1595.7z"/>
	<path d="M1759,104.2V304c0,53.6-26.5,78.6-71.1,78.6h-73.6V2.5c22.5-3,44.1-4.5,64.1-4.5C1749-2,1759,28,1759,104.2z M1687.9,329.1
		c8,0,12-3.5,12-29.6V108.2c0-47.1-5.5-57.6-21.5-57.6c-1.5,0-3,0.5-4.5,1.5v277H1687.9z"/>
</g>
</svg>
