<svg id="Layer_1" data-name="Layer 1" xmlns="http://www.w3.org/2000/svg" viewBox="0 0 1049.19 61.23"><defs><style>.cls-1{fill:#fff;}</style></defs><path class="cls-1" d="M54.7,56.85H37L36.9,45.71H84.47V56.85H66.76V101.5H54.7Z" transform="translate(-36.9 -41.39)"/><path class="cls-1" d="M93.81,45.71h12.26v21h26.41v-21h12.26V101.5H132.48l-.14-23.82H106.07V101.5H93.81Z" transform="translate(-36.9 -41.39)"/><path class="cls-1" d="M159.88,45.71h44V56.83H172.07v9.76l22.35,0V77.41H172.07v13H204V101.5h-44.1Z" transform="translate(-36.9 -41.39)"/><path class="cls-1" d="M237.54,45.71h44V56.83H249.73v9.76l22.35,0V77.41H249.73v13h31.91V101.5h-44.1Z" transform="translate(-36.9 -41.39)"/><path class="cls-1" d="M289.49,95.69l6.58-9.5a38,38,0,0,0,18.71,5.06c5.94,0,9.65-2.14,9.87-5.66s-1.91-4.6-8.51-6.06L309.21,78c-12.47-2.75-17.47-8.43-17.49-16.87,0-9.28,9.44-16.15,21.72-16.17a44,44,0,0,1,22.09,6l-6.15,9.48A29,29,0,0,0,314.61,56c-5.75,0-9.8,2-9.78,5.51,0,3.14,2.41,4.67,7.93,5.88L320.37,69c12,2.62,16.93,7.71,16.95,16.56,0,9.65-9.25,16.68-23.08,16.7C305.35,102.3,295.92,99.71,289.49,95.69Z" transform="translate(-36.9 -41.39)"/><path class="cls-1" d="M348.85,45.71h26c12.92,0,21,7.44,21,18.64S388.5,83,375.51,83H361.1V101.5H348.85Zm26.07,26.38c5.5,0,8.37-3.16,8.37-7.74s-2.87-7.7-8.37-7.7H361.1V72.09Z" transform="translate(-36.9 -41.39)"/><path class="cls-1" d="M440.46,101.5l-21.4-23.35V101.5H406.81V45.71h26.57c12.92,0,21.06,6.56,21.06,17.76,0,10.9-6.59,16.62-18.67,17l21,21Zm-21.4-31.15h15.3c4.64,0,7.59-2.29,7.59-6.88s-2.95-6.82-7.59-6.82h-15.3Z" transform="translate(-36.9 -41.39)"/><path class="cls-1" d="M467,45.71h44V56.83H479.13v9.76l22.36,0V77.41H479.13v13h31.92V101.5H467Z" transform="translate(-36.9 -41.39)"/><path class="cls-1" d="M518.9,95.69l6.58-9.5a38,38,0,0,0,18.71,5.06c5.94,0,9.65-2.14,9.86-5.66s-1.9-4.6-8.51-6.06L538.62,78c-12.47-2.75-17.48-8.43-17.5-16.87,0-9.28,9.45-16.15,21.73-16.17a44,44,0,0,1,22.09,6l-6.16,9.48A28.93,28.93,0,0,0,544,56c-5.75,0-9.81,2-9.79,5.51,0,3.14,2.41,4.67,7.93,5.88L549.78,69c12,2.62,16.93,7.71,17,16.56,0,9.65-9.25,16.68-23.09,16.7C534.76,102.3,525.33,99.71,518.9,95.69Z" transform="translate(-36.9 -41.39)"/><path class="cls-1" d="M574.16,95.69l6.58-9.5a38,38,0,0,0,18.71,5.06c5.94,0,9.65-2.14,9.86-5.66s-1.9-4.6-8.51-6.06L593.88,78c-12.47-2.75-17.48-8.43-17.5-16.87,0-9.28,9.45-16.15,21.73-16.17a44,44,0,0,1,22.09,6l-6.15,9.48A29,29,0,0,0,599.28,56c-5.75,0-9.81,2-9.78,5.51,0,3.14,2.4,4.67,7.92,5.88L605,69c12,2.62,16.93,7.71,17,16.56,0,9.65-9.25,16.68-23.09,16.7C590,102.3,580.59,99.71,574.16,95.69Z" transform="translate(-36.9 -41.39)"/><path class="cls-1" d="M630.29,73.59c0-16.28,13-28.95,30-28.95s30,12.67,30,29-13,29-30,29S630.29,89.86,630.29,73.59Zm47.69,0c0-10.27-8-17.55-17.76-17.55s-17.76,7.28-17.76,17.55,7.95,17.55,17.76,17.55S678,83.88,678,73.61Z" transform="translate(-36.9 -41.39)"/><path class="cls-1" d="M712.25,92.44l6.58-9.5a38.1,38.1,0,0,0,18.71,5c5.94,0,9.65-2.14,9.86-5.66s-1.9-4.6-8.51-6.06L732,74.74c-12.47-2.75-17.48-8.43-17.5-16.87,0-9.28,9.45-16.15,21.73-16.17a44.06,44.06,0,0,1,22.09,6l-6.16,9.48a28.83,28.83,0,0,0-14.76-4.44c-5.75,0-9.81,2-9.79,5.51,0,3.14,2.41,4.67,7.93,5.87l7.62,1.66c12,2.62,16.93,7.71,17,16.56C760.09,92,750.83,99,737,99,728.11,99,718.68,96.46,712.25,92.44Z" transform="translate(-36.9 -41.39)"/><path class="cls-1" d="M768.38,70.33c0-16.28,13-28.94,30-28.94s30,12.66,30,28.94-13,29-30,29S768.38,86.6,768.38,70.33Zm47.69,0c0-10.27-8-17.55-17.76-17.55s-17.76,7.28-17.76,17.55,8,17.55,17.76,17.55S816.07,80.62,816.07,70.35Z" transform="translate(-36.9 -41.39)"/><path class="cls-1" d="M837,70.42c0-16.28,13-29,30-29A30.07,30.07,0,0,1,890.31,52l-9.41,7.36a17.74,17.74,0,0,0-14-6.51c-9.81,0-17.76,7.28-17.76,17.55s8,17.55,17.76,17.55a17.73,17.73,0,0,0,14.16-6.7l9.55,7.2a30.09,30.09,0,0,1-23.67,10.92C850,99.36,837,86.69,837,70.42Z" transform="translate(-36.9 -41.39)"/><path class="cls-1" d="M900.78,42.45H913V98.24H900.78Z" transform="translate(-36.9 -41.39)"/><path class="cls-1" d="M928.23,42.45h44V53.57H940.42v9.76l22.35.06V74.16H940.42V87.1h31.91V98.24h-44.1Z" transform="translate(-36.9 -41.39)"/><path class="cls-1" d="M996.24,53.59H978.51l-.07-11.14H1026V53.59H1008.3V98.24H996.24Z" transform="translate(-36.9 -41.39)"/><path class="cls-1" d="M1050.39,75.57,1026.9,42.45h14.52l15.07,21.69,15.07-21.69h14.53l-23.5,33.12v22.6h-12.2Z" transform="translate(-36.9 -41.39)"/></svg>